<svg width="280" height="59" viewBox="0 0 280 59" fill="none" xmlns="http://www.w3.org/2000/svg">
<g clip-path="url(#clip0_11_135)">
<path d="M31.0061 14.405C31.0061 8.59159 27.0803 3.44738 21.4252 1.26065C25.4724 3.77599 28.1482 8.75888 28.1482 14.405C28.1482 18.6231 24.7685 24.6276 21.9349 28.9234C21.5587 29.5209 21.1825 30.0467 20.8063 30.5844L20.2663 30.674L20.6182 30.1662C21.5101 28.8637 22.4385 27.4596 23.294 25.9839L23.6763 25.3267C24.2831 24.2692 24.8899 23.1818 25.4056 22.1123C25.4966 21.939 25.5755 21.7538 25.6605 21.5746C25.7454 21.3953 25.8971 21.0667 26.0063 20.8098C26.1155 20.5529 26.1762 20.4215 26.2612 20.2124C26.5221 19.6149 26.7526 18.9756 26.9468 18.3841C26.9954 18.2288 27.0439 18.0854 27.0864 17.942C27.1875 17.6074 27.2765 17.2788 27.3534 16.9562C27.3898 16.8307 27.414 16.7112 27.4383 16.5857C27.5233 16.2093 27.5779 15.8508 27.6203 15.4864C27.6203 15.3131 27.6567 15.1398 27.6628 14.9726C27.6689 14.8053 27.6628 14.626 27.6628 14.4647C27.6628 14.3034 27.6628 13.9569 27.6628 13.7059C27.6628 13.455 27.6628 13.21 27.6143 12.9591C27.5657 12.7082 27.5779 12.6066 27.5597 12.4273C27.5415 12.2481 27.505 11.9852 27.4626 11.7582C27.4201 11.5311 27.3958 11.3638 27.3594 11.1607L27.2563 10.6827C27.2199 10.5154 27.1835 10.372 27.141 10.2048C27.141 10.1331 27.1046 10.0614 27.0864 9.99565C27.0439 9.82836 26.9954 9.67301 26.9408 9.50572C26.8861 9.33843 26.8558 9.23089 26.8073 9.09347C26.7587 8.95605 26.698 8.76486 26.6374 8.60952C26.5767 8.45418 26.4857 8.20922 26.4007 8.01205C26.3158 7.81489 26.2308 7.61772 26.1459 7.41458C26.0609 7.21144 25.9699 7.04415 25.8668 6.84698L25.6241 6.39888L25.4542 6.10613C25.3935 5.99261 25.3267 5.88506 25.26 5.78349L24.9505 5.31746C24.9245 5.28487 24.9002 5.25098 24.8777 5.2159C24.7746 5.06654 24.6714 4.92314 24.5683 4.78573L24.2467 4.37347C23.919 3.97914 23.5671 3.59677 23.197 3.23829C23.0938 3.13672 22.9907 3.04111 22.8875 2.95149C22.7844 2.84992 22.6751 2.77226 22.572 2.67666L22.1594 2.35403C22.1454 2.33395 22.1267 2.31753 22.1048 2.30622L21.8378 2.10906H21.8014L21.4919 1.89398L21.3038 1.7685L20.9155 1.54146C20.8168 1.47632 20.7134 1.41843 20.6061 1.36821C20.5099 1.31293 20.4106 1.26306 20.3087 1.21884L20.2056 1.16507L19.9386 1.03959C19.8294 0.991791 19.7202 0.938019 19.6049 0.890221C19.4896 0.842424 19.2772 0.758779 19.1073 0.705007C18.9374 0.651235 18.7675 0.57954 18.5976 0.537717C18.4277 0.495894 18.3246 0.448108 18.185 0.418234C18.1508 0.422898 18.1161 0.422898 18.0819 0.418234L17.7724 0.346523H17.7178L17.469 0.304714L17.0079 0.221059C17.262 0.293172 17.5113 0.380976 17.7542 0.483947C17.8473 0.521291 17.9384 0.56316 18.0273 0.60941C18.1317 0.652461 18.233 0.702362 18.3307 0.758777L18.5794 0.902182C18.6826 0.967904 18.7918 1.03362 18.8889 1.10532C18.986 1.17702 19.1195 1.26663 19.2347 1.3443C19.3379 1.43392 19.4471 1.5116 19.5503 1.60719C19.5731 1.62209 19.5935 1.64021 19.6109 1.66096L19.9143 1.91787C20.0235 2.01944 20.1328 2.13297 20.242 2.24649C20.3543 2.35757 20.4597 2.47529 20.5575 2.59899C20.6182 2.6667 20.6748 2.73242 20.7274 2.79615C20.8004 2.87421 20.8693 2.95598 20.9337 3.04111L21.1764 3.34583L21.4616 3.75808C21.5526 3.8955 21.6436 4.03889 21.7286 4.18826C21.8252 4.33307 21.9143 4.48263 21.9956 4.63636C22.0684 4.74988 22.1351 4.88132 22.2079 5.01277C22.2807 5.14421 22.4021 5.38917 22.4931 5.61024C22.5841 5.8313 22.6509 5.93285 22.7237 6.10015L22.9421 6.62592C23.0028 6.78126 23.0574 6.92465 23.112 7.07402C23.1666 7.22339 23.2637 7.5042 23.3305 7.71332L23.3911 8.06582C23.4275 8.16739 23.4518 8.2809 23.4882 8.39442C23.5246 8.50794 23.561 8.65731 23.5914 8.78875C23.6217 8.9202 23.6945 9.18906 23.737 9.38622C23.7795 9.58339 23.8037 9.66106 23.8341 9.80446C23.8644 9.94785 23.8826 10.0733 23.9129 10.1988C23.9433 10.3243 23.9676 10.5154 23.9979 10.6648C24.0282 10.8142 24.0586 11.0412 24.0829 11.2623C24.1071 11.4833 24.1314 11.6088 24.1496 11.7761C24.1678 11.9434 24.1981 12.2362 24.2224 12.4751C24.2467 12.7141 24.2649 13.0248 24.277 13.3116C24.277 13.4968 24.277 13.682 24.277 13.8732C24.277 14.0644 24.277 14.3213 24.277 14.5424C24.277 14.7635 24.277 14.9845 24.277 15.2235C24.277 15.4625 24.277 15.5999 24.2346 15.8209C24.228 15.9191 24.2158 16.0169 24.1981 16.1137C24.1981 16.287 24.1617 16.4722 24.1314 16.6514C24.1011 16.8307 24.0525 17.1473 24.004 17.4043C23.9554 17.6612 23.9251 17.8105 23.8826 18.0017C23.8826 18.1033 23.8401 18.2108 23.8098 18.3124C23.7795 18.414 23.7431 18.5992 23.7066 18.7545C23.6702 18.9099 23.5974 19.2146 23.5246 19.4595C23.286 20.3597 23.0008 21.2738 22.6691 22.2019C22.4992 22.7098 22.305 23.2176 22.1109 23.7195C22.0562 23.8748 22.0016 24.0242 21.9409 24.1676L21.8924 24.299C21.4879 25.3546 21.049 26.3902 20.5757 27.4059C20.4847 27.609 20.3997 27.8121 20.3027 28.0033C19.9346 28.8 19.5705 29.5707 19.2105 30.3155C19.1194 30.5008 19.0284 30.686 18.9435 30.8652L18.5248 30.901C21.0005 25.948 23.9858 19.0234 23.9858 14.4229C23.9858 7.95829 21.3281 2.34806 17.6996 0.681122C19.7444 2.91565 21.1279 8.22715 21.1279 14.4229C21.1279 19.0592 19.35 25.966 17.8634 30.9489H17.4569C17.5115 30.7636 17.5722 30.5724 17.6268 30.3514L17.8452 29.5986L17.9787 29.1385C18.0455 28.8996 18.1122 28.6606 18.185 28.4216L18.3853 27.6867C18.6462 26.7248 18.9071 25.7389 19.1498 24.7352L19.35 23.8868C19.4168 23.6179 19.4774 23.3431 19.5381 23.0742C19.5381 23.0742 19.5381 23.0742 19.5381 23.0384C19.7869 21.9092 20.0175 20.774 20.2056 19.6806C20.3027 19.1309 20.3755 18.5932 20.4483 18.0615C20.4847 17.8105 20.515 17.5596 20.5454 17.3146C20.5454 17.3146 20.5454 17.2788 20.5454 17.2489C20.5454 17.0099 20.5939 16.7709 20.6182 16.5379C20.6182 16.293 20.6607 16.048 20.6728 15.809C20.6849 15.57 20.6728 15.4625 20.6728 15.2952C20.6728 14.9905 20.6728 14.6977 20.6728 14.4109C20.6728 14.1241 20.6728 13.8732 20.6728 13.6103C20.6728 13.5566 20.6728 13.4968 20.6728 13.443L20.6364 12.5946C20.6364 12.505 20.6364 12.4214 20.6364 12.3318L20.6 11.7343V11.5013L20.5514 10.9038C20.4665 10.0016 20.3573 9.11139 20.2177 8.3048C20.2177 8.16141 20.1692 8.01802 20.1388 7.87463C20.1085 7.73123 20.066 7.48627 20.0296 7.27716C19.9143 6.67969 19.7748 6.12405 19.6291 5.58633C19.5806 5.42501 19.5321 5.27565 19.4896 5.12031C19.4471 4.96497 19.3864 4.78571 19.3318 4.6244C19.1741 4.15837 19.0163 3.72222 18.8343 3.31594C18.7979 3.22035 18.7615 3.1367 18.7251 3.05305C18.6886 2.96941 18.6644 2.9276 18.634 2.86188L18.4399 2.47949C18.2756 2.16362 18.0911 1.85831 17.8877 1.56536C17.8208 1.46362 17.7479 1.36587 17.6693 1.27261C17.6398 1.2271 17.6052 1.18501 17.5661 1.14715C17.5116 1.07063 17.4507 0.998684 17.3841 0.932048C17.2882 0.823601 17.1848 0.721784 17.0746 0.627334C17.0269 0.582351 16.9762 0.540446 16.9229 0.50187C16.858 0.445319 16.7891 0.393401 16.7166 0.346523C16.6493 0.297579 16.5783 0.253643 16.5043 0.215079L16.3586 0.143386L16.2009 0.0716924L15.9582 -0.00598145C16.0096 0.0655225 16.0543 0.141523 16.0917 0.221059C17.1596 2.35402 17.463 10.0434 17.463 14.399C17.463 19.0652 16.8562 26.0197 16.3647 30.9967H15.8065C16.304 26.0257 16.9047 19.0473 16.9047 14.393C16.9047 5.30553 15.9824 0.705003 15.4788 0.215079C14.9691 0.705003 14.0529 5.30553 14.0529 14.393C14.0529 19.0593 14.6597 26.0257 15.1512 30.9967C15.0238 30.9967 14.8963 30.9967 14.7689 30.9967C14.2713 26.0197 13.6706 19.0473 13.6706 14.399C13.6706 8.07178 14.1985 1.56536 15.1087 0.125462L14.866 0.221059H14.8174C12.3175 1.20688 10.4305 7.29509 10.4305 14.3811C10.4305 19.0174 12.2508 25.9899 13.7313 30.9429L13.1245 30.907C11.6379 25.9301 9.86012 19.0174 9.86012 14.3811C9.86012 8.20922 11.2436 2.9037 13.2884 0.639295C9.64774 2.28233 7.00221 7.88659 7.00221 14.3811C7.00221 18.9756 9.99966 25.9062 12.4632 30.8593C12.3115 30.8593 12.1598 30.8592 12.0142 30.8174L11.7047 30.1841C11.3406 29.4492 10.9826 28.6725 10.6125 27.8779C10.5154 27.6747 10.4305 27.4716 10.3395 27.2804C9.88437 26.2707 9.44144 25.2251 9.02277 24.1795L8.97422 24.0481C8.91354 23.8987 8.85893 23.7434 8.80432 23.6C8.61015 23.0921 8.42206 22.5903 8.2461 22.0824C7.91844 21.1544 7.63326 20.2402 7.39055 19.34C7.31774 19.0971 7.25705 18.8601 7.20851 18.6291C7.1721 18.4797 7.12964 18.3303 7.10537 18.1869C7.08109 18.0435 7.05683 17.9778 7.03256 17.8762C6.99008 17.6671 6.94153 17.464 6.91119 17.2788C6.88086 17.0936 6.81412 16.7709 6.78378 16.526C6.75344 16.281 6.73523 16.1675 6.71702 15.9942C6.69931 15.8954 6.68716 15.7957 6.68062 15.6955C6.68062 15.4983 6.64423 15.3071 6.63816 15.098C6.63209 14.8889 6.63816 14.644 6.63816 14.4229C6.63816 14.2018 6.63816 13.9748 6.63816 13.7478C6.63816 13.5207 6.63816 13.3773 6.63816 13.1921C6.63816 12.9053 6.67456 12.6245 6.69276 12.3497C6.71097 12.0748 6.73524 11.8836 6.76557 11.6506C6.79591 11.4176 6.80197 11.3041 6.83231 11.1368C6.86265 10.9695 6.88693 10.7604 6.91727 10.5692L7.00221 10.1032C7.00221 9.97175 7.05075 9.83432 7.08109 9.70288C7.11143 9.57144 7.14177 9.42208 7.17817 9.28466C7.21458 9.14724 7.26919 8.89033 7.32379 8.68719L7.42695 8.28688C7.46336 8.17934 7.48763 8.06581 7.52404 7.96424L7.65753 7.54603C7.72428 7.33094 7.79708 7.11585 7.87596 6.90673C7.95484 6.69762 7.98518 6.60202 8.04586 6.45863L8.2643 5.93286C8.33712 5.76556 8.416 5.59828 8.49488 5.43696C8.57376 5.27565 8.68298 5.04861 8.78006 4.8395C8.87715 4.63038 8.91961 4.58258 8.99242 4.46309C9.06523 4.34359 9.16232 4.15838 9.2594 4.01499C9.35648 3.87159 9.43537 3.72821 9.52638 3.59079L9.81157 3.1845C9.89045 3.08293 9.96932 2.9754 10.0543 2.8798C10.1392 2.78421 10.1878 2.7125 10.2606 2.62886C10.3334 2.54521 10.3637 2.49742 10.4305 2.4317C10.4972 2.36598 10.6368 2.19271 10.746 2.0792L11.0737 1.75656L11.377 1.49367L11.4377 1.4399C11.5409 1.3443 11.6501 1.26664 11.7532 1.18299C11.8685 1.09337 11.9838 1.0157 12.0991 0.938029C12.2144 0.860358 12.3054 0.800601 12.4086 0.740854L12.6573 0.597467L12.9546 0.44212L13.2277 0.316657V0.197156L12.9182 0.268867H12.8151C12.6755 0.304715 12.536 0.346539 12.4025 0.382388C12.269 0.418236 12.0627 0.489931 11.8928 0.549678C11.7229 0.609425 11.5591 0.669158 11.3953 0.740854C11.2815 0.785093 11.1701 0.834945 11.0615 0.890221L10.7945 1.0157L10.6914 1.06349L10.3941 1.21884C10.2879 1.27119 10.1846 1.32901 10.0846 1.39209C9.95113 1.46379 9.8237 1.54744 9.69628 1.62511L9.50818 1.75058C9.40503 1.8163 9.2958 1.89398 9.19872 1.96567H9.16231L8.89533 2.16283C8.87371 2.1718 8.85488 2.18623 8.84073 2.20466C8.70117 2.30623 8.56161 2.41974 8.42812 2.53326C8.32497 2.62288 8.21576 2.70654 8.11261 2.80811L7.80315 3.10086C7.43177 3.45945 7.08129 3.83845 6.75343 4.23605L6.43184 4.6483C6.32869 4.78572 6.22555 4.92911 6.1224 5.0725C6.09993 5.10758 6.07563 5.14149 6.04959 5.17408L5.74013 5.64608C5.67338 5.74765 5.60663 5.8552 5.54596 5.96274C5.48528 6.07028 5.43067 6.1599 5.37606 6.26147C5.32145 6.36304 5.20617 6.56021 5.13336 6.70957C5.06054 6.85894 4.94526 7.08001 4.85425 7.2712C4.76323 7.46239 4.68434 7.6476 4.59939 7.86866C4.51444 8.08973 4.43557 8.25702 4.36276 8.46613C4.28995 8.67525 4.24746 8.78279 4.19285 8.95008C4.13824 9.11737 4.09578 9.22492 4.05937 9.36234C4.02297 9.49975 3.95621 9.69094 3.91374 9.85823C3.91374 9.92395 3.87733 9.99565 3.85913 10.0673C3.84093 10.139 3.77418 10.378 3.74384 10.5453L3.6407 11.0173C3.60429 11.2145 3.56181 11.4116 3.53754 11.6148C3.51327 11.8179 3.47079 12.0569 3.44046 12.278C3.41012 12.499 3.40405 12.6365 3.38585 12.8157C3.36764 12.9949 3.34945 13.3116 3.33731 13.5625C3.32518 13.8135 3.33731 14.0704 3.33731 14.3213C3.33731 14.5722 3.33731 14.6559 3.33731 14.8292C3.33731 15.0024 3.3373 15.1757 3.37977 15.349C3.42225 15.7074 3.48294 16.0659 3.56182 16.4423C3.58609 16.5698 3.61439 16.6953 3.64676 16.8187C3.72564 17.1414 3.81665 17.464 3.91374 17.7986C3.95621 17.9479 4.00476 18.0973 4.0533 18.2407C4.24747 18.8382 4.47804 19.4357 4.73896 20.069C4.8239 20.2661 4.90884 20.4633 4.99379 20.6664C5.07874 20.8696 5.22437 21.1743 5.33966 21.4312C5.45494 21.6881 5.50956 21.7897 5.59451 21.9629C6.11633 23.0324 6.70489 24.1138 7.32379 25.1773L7.70606 25.8345C8.57375 27.2864 9.48998 28.6964 10.3819 30.0168L10.7581 30.5665L10.7945 30.6143H10.6428L10.2666 30.5486C9.89045 30.0108 9.51426 29.4552 9.13806 28.8876C7.57923 26.5577 6.18638 24.1241 4.96953 21.6044C3.75599 19.0413 2.93077 16.4841 2.93077 14.3751C2.93077 8.75888 5.60663 3.776 9.6538 1.23078C3.99261 3.38764 0.072876 8.53185 0.072876 14.3751C0.072876 18.4199 4.32027 24.293 7.91236 28.5112C8.4706 29.1684 9.0349 29.8137 9.58706 30.4291H9.44144H9.19266L10.7156 33.4164L12.7544 37.3836V37.4314H13.0335L13.0821 37.5628C13.3309 38.169 13.5119 38.8001 13.6221 39.4449C13.5492 39.9392 13.421 40.4241 13.2398 40.8907C12.8226 40.9839 12.4484 41.2101 12.1752 41.5342C11.902 41.8583 11.7451 42.2622 11.729 42.6831V45.6048C11.7324 45.9242 11.8197 46.2373 11.9824 46.5137C12.1451 46.79 12.3776 47.0203 12.6573 47.1821H18.3125C18.5922 47.0203 18.8247 46.79 18.9874 46.5137C19.15 46.2373 19.2373 45.9242 19.2408 45.6048V42.719C19.2402 42.3228 19.1134 41.9367 18.8783 41.6152C18.6432 41.2936 18.3116 41.0528 17.9302 40.9266C17.7411 40.4427 17.6067 39.9398 17.5297 39.4269C17.6401 38.7822 17.8211 38.1512 18.0697 37.5449L18.1244 37.4015H18.2639L20.3087 33.3865L21.8317 30.3992H21.6558H21.5101C22.0623 29.8017 22.6266 29.1445 23.1848 28.4813C26.7405 24.3289 31.0061 18.4558 31.0061 14.405ZM17.3234 40.825H13.9012C14.0671 40.3819 14.1772 39.9204 14.2289 39.4508C14.1514 38.8678 14.0027 38.296 13.7859 37.748H17.4266C17.2098 38.296 17.0611 38.8678 16.9836 39.4508C17.0396 39.9208 17.1537 40.3823 17.3234 40.825Z" fill="#D6BA73"/>
</g>
<path d="M48.65 31.98H54.29L51.65 23.19L48.65 31.98ZM58.94 39.3C58.24 39.3 57.68 39.13 57.26 38.79C56.84 38.45 56.46 37.84 56.12 36.96L55.22 34.47H47.75L46.79 37.02C46.25 38.54 45.41 39.3 44.27 39.3C43.75 39.3 43.27 39.18 42.83 38.94C42.39 38.68 42.09 38.36 41.93 37.98C42.45 37.76 42.92 37.11 43.34 36.03L49.82 19.44C49.54 18.76 49.21 18.27 48.83 17.97C49.37 17.23 50.09 16.86 50.99 16.86C51.91 16.86 52.56 17.09 52.94 17.55C53.34 17.99 53.74 18.77 54.14 19.89L59.78 35.64C60.22 36.82 60.8 37.59 61.52 37.95C61.06 38.85 60.2 39.3 58.94 39.3ZM68.3938 34.26C68.3938 36.06 69.2738 36.96 71.0338 36.96C72.2938 36.96 73.3038 36.43 74.0638 35.37C74.8238 34.31 75.2038 32.94 75.2038 31.26C75.2038 29.56 74.8538 28.25 74.1538 27.33C73.4538 26.41 72.6138 25.95 71.6338 25.95C70.1938 25.95 69.1138 26.7 68.3938 28.2V34.26ZM68.4238 18.75V25.29C69.4838 23.89 70.9137 23.19 72.7138 23.19C74.5138 23.19 76.0238 23.86 77.2437 25.2C78.4838 26.52 79.1038 28.43 79.1038 30.93C79.1038 33.43 78.3238 35.45 76.7638 36.99C75.2238 38.53 73.2538 39.3 70.8538 39.3C66.6338 39.3 64.5238 37.62 64.5238 34.26L64.5538 18.66C64.5538 17.8 64.2438 17.21 63.6238 16.89C64.2438 16.13 65.0238 15.75 65.9638 15.75C67.6038 15.75 68.4238 16.75 68.4238 18.75ZM88.6048 25.23C86.4248 25.23 85.3348 26.91 85.3348 30.27C85.3348 30.57 85.3448 30.89 85.3648 31.23C85.5848 35.25 86.8848 37.26 89.2648 37.26C91.4048 37.26 92.4748 35.6 92.4748 32.28C92.4748 31.96 92.4648 31.61 92.4448 31.23C92.2248 27.23 90.9448 25.23 88.6048 25.23ZM81.4348 31.23C81.4348 28.65 82.1348 26.67 83.5348 25.29C84.9348 23.89 86.7248 23.19 88.9048 23.19C91.1048 23.19 92.9048 23.89 94.3048 25.29C95.7048 26.69 96.4048 28.68 96.4048 31.26C96.4048 33.82 95.7048 35.8 94.3048 37.2C92.9048 38.6 91.1148 39.3 88.9348 39.3C86.7548 39.3 84.9548 38.6 83.5348 37.2C82.1348 35.8 81.4348 33.81 81.4348 31.23ZM109.685 26.67C109.885 26.09 109.985 25.55 109.985 25.05C109.985 24.55 109.855 24.1 109.595 23.7C110.175 23.36 110.815 23.19 111.515 23.19C112.215 23.19 112.765 23.37 113.165 23.73C113.585 24.09 113.795 24.55 113.795 25.11C113.795 25.65 113.645 26.3 113.345 27.06L109.745 36.18C109.325 37.3 108.865 38.09 108.365 38.55C107.885 38.99 107.175 39.21 106.235 39.21C105.295 39.21 104.575 39 104.075 38.58C103.575 38.14 103.145 37.34 102.785 36.18L99.7252 26.49C99.4252 25.59 99.0052 25.02 98.4652 24.78C98.6252 24.3 98.9352 23.92 99.3952 23.64C99.8552 23.34 100.355 23.19 100.895 23.19C102.395 23.19 103.325 24.05 103.685 25.77L106.295 36.69L109.685 26.67ZM123.987 29.34C124.387 29.3 124.677 29.18 124.857 28.98C125.037 28.78 125.127 28.38 125.127 27.78C125.127 27.18 124.937 26.63 124.557 26.13C124.177 25.63 123.637 25.38 122.937 25.38C122.257 25.38 121.627 25.76 121.047 26.52C120.487 27.26 120.117 28.33 119.937 29.73L123.987 29.34ZM123.987 36.51C125.627 36.51 127.007 35.92 128.127 34.74C128.507 34.94 128.697 35.3 128.697 35.82C128.697 36.66 128.157 37.45 127.077 38.19C126.017 38.93 124.757 39.3 123.297 39.3C121.037 39.3 119.247 38.65 117.927 37.35C116.607 36.05 115.947 34.2 115.947 31.8C115.947 29.4 116.667 27.37 118.107 25.71C119.567 24.03 121.347 23.19 123.447 23.19C125.067 23.19 126.397 23.73 127.437 24.81C128.497 25.87 129.027 27.09 129.027 28.47C129.027 29.51 128.767 30.27 128.247 30.75C127.727 31.21 126.857 31.45 125.637 31.47L119.847 31.65C119.927 34.89 121.307 36.51 123.987 36.51ZM148.105 25.11C148.365 25.43 148.495 25.78 148.495 26.16C148.495 26.52 148.415 26.85 148.255 27.15C148.115 27.43 147.825 27.69 147.385 27.93C146.945 28.15 146.415 28.26 145.795 28.26H145.435C144.315 29.14 143.755 30.24 143.755 31.56C143.755 32.88 144.265 33.92 145.285 34.68C146.305 35.42 147.595 35.79 149.155 35.79C150.735 35.79 152.065 35.4 153.145 34.62C154.245 33.84 154.795 32.82 154.795 31.56C154.795 30.6 154.545 29.86 154.045 29.34C153.545 28.8 152.815 28.53 151.855 28.53C151.635 28.21 151.525 27.91 151.525 27.63C151.525 27.35 151.585 27.1 151.705 26.88C151.985 26.34 152.625 26.07 153.625 26.07C155.145 26.07 156.135 25.79 156.595 25.23C156.935 24.83 157.105 24.4 157.105 23.94C157.105 23.48 157.075 23.09 157.015 22.77C157.655 22.51 158.225 22.38 158.725 22.38C159.245 22.38 159.705 22.5 160.105 22.74C160.905 23.24 161.305 24 161.305 25.02C161.305 26.02 160.895 26.82 160.075 27.42C159.275 28 158.055 28.29 156.415 28.29H156.295C156.835 29.33 157.105 30.42 157.105 31.56C157.105 33.72 156.285 35.55 154.645 37.05C153.025 38.55 150.985 39.3 148.525 39.3C146.065 39.3 144.065 38.71 142.525 37.53C141.005 36.35 140.245 34.81 140.245 32.91C140.245 30.77 141.345 29.08 143.545 27.84C142.685 27.46 142.025 26.87 141.565 26.07C141.105 25.25 140.875 24.31 140.875 23.25C140.875 21.41 141.515 19.88 142.795 18.66C144.095 17.44 145.475 16.83 146.935 16.83C148.415 16.83 149.605 17.13 150.505 17.73C151.425 18.33 151.885 19.04 151.885 19.86C151.885 20.66 151.535 21.27 150.835 21.69C150.435 21.93 150.015 22.05 149.575 22.05C149.155 22.05 148.745 21.99 148.345 21.87C148.285 19.97 147.565 19.02 146.185 19.02C145.545 19.02 145.005 19.27 144.565 19.77C144.145 20.25 143.935 20.95 143.935 21.87C143.935 22.79 144.305 23.56 145.045 24.18C145.805 24.8 146.825 25.11 148.105 25.11ZM188.548 22.89C188.548 24.03 188.188 24.99 187.468 25.77C186.768 26.55 185.788 27.09 184.528 27.39C186.048 27.71 187.338 28.34 188.398 29.28C189.458 30.22 189.988 31.46 189.988 33C189.988 34.86 189.128 36.38 187.408 37.56C185.688 38.72 183.398 39.3 180.538 39.3C177.698 39.3 175.638 38.91 174.358 38.13C173.078 37.35 172.438 36.11 172.438 34.41L172.468 20.91C172.468 19.81 172.238 18.91 171.778 18.21C174.358 17.31 177.068 16.86 179.908 16.86C182.768 16.86 184.918 17.43 186.358 18.57C187.818 19.69 188.548 21.13 188.548 22.89ZM176.368 26.55H180.148C180.188 26.55 180.228 26.55 180.268 26.55C181.588 26.55 182.628 26.23 183.388 25.59C184.148 24.95 184.528 24.11 184.528 23.07C184.528 22.03 184.128 21.19 183.328 20.55C182.548 19.91 181.448 19.59 180.028 19.59C178.628 19.59 177.408 19.73 176.368 20.01V26.55ZM180.508 36.57C182.228 36.57 183.558 36.24 184.498 35.58C185.458 34.9 185.938 34 185.938 32.88C185.938 31.76 185.458 30.86 184.498 30.18C183.558 29.5 182.228 29.16 180.508 29.16H176.368L176.338 34.65C176.338 35.93 177.728 36.57 180.508 36.57ZM201.477 29.34C201.877 29.3 202.167 29.18 202.347 28.98C202.527 28.78 202.617 28.38 202.617 27.78C202.617 27.18 202.427 26.63 202.047 26.13C201.667 25.63 201.127 25.38 200.427 25.38C199.747 25.38 199.117 25.76 198.537 26.52C197.977 27.26 197.607 28.33 197.427 29.73L201.477 29.34ZM201.477 36.51C203.117 36.51 204.497 35.92 205.617 34.74C205.997 34.94 206.187 35.3 206.187 35.82C206.187 36.66 205.647 37.45 204.567 38.19C203.507 38.93 202.247 39.3 200.787 39.3C198.527 39.3 196.737 38.65 195.417 37.35C194.097 36.05 193.437 34.2 193.437 31.8C193.437 29.4 194.157 27.37 195.597 25.71C197.057 24.03 198.837 23.19 200.937 23.19C202.557 23.19 203.887 23.73 204.927 24.81C205.987 25.87 206.517 27.09 206.517 28.47C206.517 29.51 206.257 30.27 205.737 30.75C205.217 31.21 204.347 31.45 203.127 31.47L197.337 31.65C197.417 34.89 198.797 36.51 201.477 36.51ZM220.455 26.25C220.655 25.75 220.755 25.28 220.755 24.84C220.755 24.4 220.635 24.01 220.395 23.67C220.915 23.35 221.555 23.19 222.315 23.19C223.075 23.19 223.685 23.54 224.145 24.24C224.365 24.58 224.475 24.99 224.475 25.47C224.475 25.93 224.355 26.46 224.115 27.06L218.205 42.84C217.205 45.5 215.715 46.83 213.735 46.83C212.895 46.83 212.215 46.61 211.695 46.17C211.175 45.73 210.915 45.19 210.915 44.55C210.915 43.93 211.085 43.4 211.425 42.96C211.885 43.38 212.405 43.59 212.985 43.59C213.945 43.59 214.635 43 215.055 41.82L215.925 39.3C215.865 39.3 215.815 39.3 215.775 39.3C215.155 39.3 214.575 39.06 214.035 38.58C213.495 38.1 213.095 37.43 212.835 36.57L209.475 26.37C209.155 25.31 208.765 24.61 208.305 24.27C208.985 23.55 209.725 23.19 210.525 23.19C211.345 23.19 211.965 23.42 212.385 23.88C212.825 24.32 213.185 25.03 213.465 26.01L216.735 36.99L220.455 26.25ZM233.683 25.23C231.503 25.23 230.413 26.91 230.413 30.27C230.413 30.57 230.423 30.89 230.443 31.23C230.663 35.25 231.963 37.26 234.343 37.26C236.483 37.26 237.553 35.6 237.553 32.28C237.553 31.96 237.543 31.61 237.523 31.23C237.303 27.23 236.023 25.23 233.683 25.23ZM226.513 31.23C226.513 28.65 227.213 26.67 228.613 25.29C230.013 23.89 231.803 23.19 233.983 23.19C236.183 23.19 237.983 23.89 239.383 25.29C240.783 26.69 241.483 28.68 241.483 31.26C241.483 33.82 240.783 35.8 239.383 37.2C237.983 38.6 236.193 39.3 234.013 39.3C231.833 39.3 230.033 38.6 228.613 37.2C227.213 35.8 226.513 33.81 226.513 31.23ZM259.203 28.5V36.39C259.203 37.25 259.503 37.83 260.103 38.13C259.483 38.91 258.713 39.3 257.793 39.3C256.153 39.3 255.333 38.3 255.333 36.3V28.98C255.333 27.22 254.573 26.34 253.053 26.34C252.273 26.34 251.523 26.68 250.803 27.36C250.083 28.04 249.583 28.99 249.303 30.21V36.39C249.303 37.25 249.603 37.83 250.203 38.13C249.583 38.91 248.813 39.3 247.893 39.3C246.253 39.3 245.433 38.3 245.433 36.3V26.1C245.433 25.22 245.133 24.63 244.533 24.33C245.113 23.57 245.873 23.19 246.813 23.19C248.473 23.19 249.303 24.19 249.303 26.19V26.52C249.823 25.48 250.563 24.67 251.523 24.09C252.483 23.49 253.593 23.19 254.853 23.19C256.133 23.19 257.173 23.64 257.973 24.54C258.793 25.44 259.203 26.76 259.203 28.5ZM273.037 26.46C272.417 25.8 271.577 25.47 270.517 25.47C269.477 25.47 268.577 25.99 267.817 27.03C267.057 28.07 266.677 29.5 266.677 31.32C266.677 33.12 266.997 34.47 267.637 35.37C268.277 36.27 269.147 36.72 270.247 36.72C271.587 36.72 272.517 36.09 273.037 34.83V26.46ZM276.907 18.75V36.39C276.907 37.25 277.207 37.83 277.807 38.13C277.187 38.91 276.417 39.3 275.497 39.3C274.197 39.3 273.417 38.69 273.157 37.47C272.217 38.69 270.867 39.3 269.107 39.3C267.367 39.3 265.857 38.62 264.577 37.26C263.297 35.9 262.657 34.02 262.657 31.62C262.657 29.22 263.367 27.22 264.787 25.62C266.207 24 268.047 23.19 270.307 23.19C271.307 23.19 272.217 23.34 273.037 23.64V18.66C273.037 17.8 272.727 17.21 272.107 16.89C272.727 16.13 273.497 15.75 274.417 15.75C276.077 15.75 276.907 16.75 276.907 18.75Z" fill="white"/>
<defs>
<clipPath id="clip0_11_135">
<rect width="31" height="59" fill="white"/>
</clipPath>
</defs>
</svg>
